<?xml version="1.0" encoding="UTF-8"?>
<svg id="Layer_2" data-name="Layer 2" xmlns="http://www.w3.org/2000/svg" viewBox="0 0 55.1 55.1">
  <defs>
    <style>
      .cls-1 {
        fill: #fff;
        fill-rule: evenodd;
      }
    </style>
  </defs>
  <g id="Layer_1-2" data-name="Layer 1">
    <g>
      <path class="cls-1" d="m0,0h55.1v55.1H0V0Zm2.62,2.62h49.86v49.86H2.62V2.62Z"/>
      <path class="cls-1" d="m26.24,5.25h2.62v5.25h-2.62v-5.25Z"/>
      <path class="cls-1" d="m26.24,15.74h2.62v5.25h-2.62v-5.25Z"/>
      <path class="cls-1" d="m26.24,26.24h2.62v2.62h-2.62v-2.62Z"/>
      <path class="cls-1" d="m26.24,34.11h2.62v5.25h-2.62v-5.25Z"/>
      <path class="cls-1" d="m26.24,44.6h2.62v5.25h-2.62v-5.25Z"/>
      <path class="cls-1" d="m5.25,26.24h5.25v2.62h-5.25v-2.62Z"/>
      <path class="cls-1" d="m15.74,26.24h5.25v2.62h-5.25v-2.62Z"/>
      <path class="cls-1" d="m34.11,26.24h5.25v2.62h-5.25v-2.62Z"/>
      <path class="cls-1" d="m44.6,26.24h5.25v2.62h-5.25v-2.62Z"/>
    </g>
  </g>
</svg>