<?xml version="1.0" encoding="UTF-8"?>
<svg id="Layer_1" data-name="Layer 1" xmlns="http://www.w3.org/2000/svg" viewBox="0 0 78.13 90.63">
  <defs>
    <style>
      .cls-1 {
        fill: #fff;
        fill-rule: evenodd;
      }
    </style>
  </defs>
  <path class="cls-1" d="m14.06,51.56c0-.86.7-1.56,1.56-1.56s1.56.7,1.56,1.56v1.56c0,3.45,2.8,6.25,6.25,6.25s6.25-2.8,6.25-6.25v-12.5c0-.86.7-1.56,1.56-1.56h1.56c2.59,0,4.69-2.1,4.69-4.69s-2.1-4.69-4.69-4.69H10.94c-5.18,0-9.38,4.2-9.38,9.38v20.31c0,3.45,2.8,6.25,6.25,6.25s6.25-2.8,6.25-6.25v-7.81Zm-3.12,0v7.81c0,1.72-1.4,3.12-3.12,3.12s-3.12-1.4-3.12-3.12v-20.31c0-3.45,2.8-6.25,6.25-6.25h21.88c.86,0,1.56.7,1.56,1.56s-.7,1.56-1.56,1.56h-1.56c-2.59,0-4.69,2.1-4.69,4.69v12.5c0,1.72-1.4,3.12-3.12,3.12s-3.12-1.4-3.12-3.12v-1.56c0-2.59-2.1-4.69-4.69-4.69s-4.69,2.1-4.69,4.69h0Z"/>
  <path class="cls-1" d="m62.5,28.12V7.81c0-4.31-3.5-7.81-7.81-7.81s-7.81,3.5-7.81,7.81v34.38h3.12V7.81c0-2.59,2.1-4.69,4.69-4.69s4.69,2.1,4.69,4.69v20.31c0,.86.7,1.56,1.56,1.56s1.56-.7,1.56-1.56Z"/>
  <path class="cls-1" d="m23.29,58.92l23.44,23.44c.61.61,1.6.61,2.21,0l28.73-28.73c.61-.61.61-1.6,0-2.21l-21.88-21.88c-.61-.61-1.6-.61-2.21,0s-.61,1.6,0,2.21l20.77,20.77-26.52,26.52-22.33-22.33c-.61-.61-1.6-.61-2.21,0s-.61,1.6,0,2.21h0Z"/>
  <path class="cls-1" d="m49.54,23.29l-5.02-5.02c-.61-.61-1.6-.61-2.21,0l-11.87,11.87c-.61.61,1.6,2.82,2.21,2.21l10.77-10.77,3.91,3.91c.61.61,2.82-1.6,2.21-2.21h0Z"/>
  <path class="cls-1" d="m48.44,40.62c-3.45,0-6.25,2.8-6.25,6.25s2.8,6.25,6.25,6.25,6.25-2.8,6.25-6.25-2.8-6.25-6.25-6.25Zm0,3.12c1.73,0,3.12,1.4,3.12,3.12s-1.4,3.12-3.12,3.12-3.12-1.4-3.12-3.12,1.4-3.12,3.12-3.12Z"/>
  <path class="cls-1" d="m9.09,69.41c-.29-.41-.77-.65-1.27-.65s-.98.24-1.27.65c0,0-3.15,4.41-5.04,8.38-.91,1.9-1.5,3.73-1.5,5.03,0,4.31,3.5,7.81,7.81,7.81s7.81-3.5,7.81-7.81c0-1.3-.59-3.12-1.5-5.03-1.89-3.97-5.04-8.38-5.04-8.38h0Zm-1.27,3.69c1.02,1.56,2.46,3.87,3.49,6.04.67,1.4,1.2,2.73,1.2,3.68,0,2.59-2.1,4.69-4.69,4.69s-4.69-2.1-4.69-4.69c0-.96.53-2.28,1.2-3.68,1.03-2.17,2.46-4.48,3.49-6.04Z"/>
  <path class="cls-1" d="m15.62,68.75c0,2.08-3.12,2.08-3.12,0s3.12-2.08,3.12,0"/>
  <path class="cls-1" d="m3.12,68.75c0,2.08-3.12,2.08-3.12,0s3.12-2.08,3.12,0"/>
</svg>