<?xml version="1.0" encoding="UTF-8"?>
<svg width="100pt" height="100pt" version="1.1" viewBox="0 0 100 100" xmlns="http://www.w3.org/2000/svg">
 <path d="m38.004 11.832c2.1094-0.66406 3.9766 1.5391 2.9805 3.5117-2.2812 4.5039-3.4844 9.4922-3.4844 14.656 0 17.949 14.551 32.5 32.5 32.5 5.1641 0 10.152-1.2031 14.656-3.4844 1.9727-0.99609 4.1758 0.87109 3.5117 2.9805-5.1914 16.535-20.566 28.004-38.168 28.004-22.09 0-40-17.91-40-40 0-17.602 11.469-32.977 28.004-38.168zm-23.004 38.168c0 19.328 15.672 35 35 35 13.445 0 25.41-7.6484 31.254-19.219-3.6055 1.1328-7.3867 1.7188-11.254 1.7188-20.711 0-37.5-16.789-37.5-37.5 0-3.8672 0.58594-7.6484 1.7188-11.254-11.57 5.8438-19.219 17.809-19.219 31.254z" fill="#fff"/>
</svg>
