<?xml version="1.0" encoding="UTF-8"?>
<svg id="Layer_2" data-name="Layer 2" xmlns="http://www.w3.org/2000/svg" viewBox="0 0 100 83.34">
  <defs>
    <style>
      .cls-1 {
        fill-rule: evenodd;
      }
    </style>
  </defs>
  <g id="Layer_1-2" data-name="Layer 1">
    <path class="cls-1" d="m80.5,0c-1.35-.01-2.73.24-4.05.79l-22.1,9.16c-5.3,2.2-7.84,8.31-5.64,13.62l9.15,22.09c2.2,5.3,8.32,7.84,13.62,5.64l22.1-9.16c5.3-2.2,7.84-8.31,5.64-13.62l-9.15-22.09C88.42,2.46,84.56.04,80.5,0h0Zm0,4.15c2.44,0,4.71,1.45,5.72,3.88l9.14,22.09c1.34,3.23-.15,6.83-3.38,8.16l-22.1,9.16c-3.23,1.34-6.83-.15-8.17-3.39l-9.15-22.09c-1.34-3.23.15-6.83,3.38-8.16l22.1-9.16c.81-.34,1.64-.5,2.45-.49h0Zm-16.95,14.6c-1.73,0-3.12,1.4-3.12,3.12s1.4,3.12,3.12,3.12,3.12-1.4,3.12-3.12-1.4-3.12-3.12-3.12Zm10.41,4.17c-1.72,0-3.12,1.4-3.12,3.12s1.4,3.12,3.12,3.12,3.12-1.4,3.12-3.12-1.4-3.12-3.12-3.12Zm10.42,4.17c-1.73,0-3.12,1.4-3.12,3.12s1.4,3.12,3.12,3.12,3.12-1.4,3.12-3.12-1.4-3.12-3.12-3.12Zm-64.88,4.16c-4.06.04-7.91,2.46-9.56,6.43L.79,59.77c-2.2,5.3.34,11.42,5.64,13.62l22.1,9.16c5.3,2.19,11.42-.34,13.62-5.64l9.15-22.09c2.2-5.3-.34-11.42-5.64-13.62l-22.1-9.16c-1.32-.55-2.7-.8-4.05-.79h0Zm0,4.15c.81,0,1.64.16,2.45.49l22.1,9.16c3.23,1.34,4.72,4.93,3.38,8.16l-9.15,22.09c-1.34,3.23-4.94,4.73-8.17,3.39l-22.1-9.16c-3.23-1.34-4.72-4.93-3.38-8.16l9.14-22.09c1-2.43,3.28-3.88,5.72-3.88Zm2.37,8.35c-1.73,0-3.12,1.4-3.12,3.12s1.4,3.12,3.12,3.12,3.12-1.4,3.12-3.12-1.4-3.12-3.12-3.12Zm14.58,6.25c-1.72,0-3.12,1.4-3.12,3.12s1.4,3.12,3.12,3.12,3.12-1.4,3.12-3.12-1.4-3.12-3.12-3.12Zm-10.41,4.17c-1.73,0-3.12,1.4-3.12,3.12s1.4,3.12,3.12,3.12,3.12-1.4,3.12-3.12-1.4-3.12-3.12-3.12Zm-10.42,4.17c-1.73,0-3.12,1.4-3.12,3.12s1.4,3.12,3.12,3.12,3.12-1.4,3.12-3.12-1.4-3.12-3.12-3.12Zm14.58,6.25c-1.72,0-3.12,1.4-3.12,3.12s1.4,3.12,3.12,3.12,3.12-1.4,3.12-3.12-1.4-3.12-3.12-3.12Z"/>
  </g>
</svg>