<?xml version="1.0" encoding="UTF-8"?>
<svg width="100pt" height="100pt" version="1.1" viewBox="0 0 100 100" xmlns="http://www.w3.org/2000/svg">
 <path d="m97.359 32.301-29.121-29.102c-1.6914-1.6992-3.9961-2.6484-6.3984-2.6406-2.418-0.011719-4.7422 0.94141-6.4609 2.6406l-15.617 15.621c-0.53516 0.31641-0.89062 0.85938-0.96875 1.4688-0.074219 0.61328 0.13672 1.2305 0.57031 1.6641 0.4375 0.4375 1.0547 0.64844 1.6641 0.57031 0.61328-0.074219 1.1562-0.43359 1.4727-0.96484l15.602-15.559c0.95313-1.0312 2.3125-1.5938 3.7188-1.5391 1.3828-0.007813 2.7109 0.55078 3.6797 1.5391l29.121 29.02c2.0312 2.0586 2.0312 5.3633 0 7.4219l-27.859 27.879-36.523-36.52 5.082-5.082c0.53906-0.3125 0.90234-0.85547 0.98047-1.4727 0.082031-0.61719-0.13281-1.2383-0.57422-1.6758-0.44141-0.44141-1.0625-0.64844-1.6797-0.5625-0.61719 0.082032-1.1602 0.44922-1.4688 0.99219l-6.4219 6.4219-0.12109 0.14062-7.1133 7.0977-15.781 15.801c-1.793 1.6992-2.8008 4.0664-2.7812 6.5391-0.015625 2.4219 0.94531 4.75 2.6602 6.4609l27.18 27.141h-28.199c-0.85156 0.24609-1.4414 1.0312-1.4414 1.918 0 0.89062 0.58984 1.6719 1.4414 1.9219h55.5c0.60547 0.17578 1.2578 0.054688 1.7617-0.32031 0.5-0.37891 0.79688-0.97266 0.79688-1.6016 0-0.62891-0.29688-1.2227-0.79688-1.5977-0.50391-0.37891-1.1562-0.5-1.7617-0.32031h-10.578l13.82-13.82 36.617-36.602c3.5273-3.5664 3.5273-9.3125 0-12.879zm-37.879 45.301-2-2c-0.78516-0.46875-1.7891-0.33984-2.4336 0.30469s-0.77344 1.6484-0.30859 2.4336l2 2-14.457 14.461c-0.3125 0.32031-0.66797 0.58984-1.0625 0.80078h-5.2188c-0.39453-0.21094-0.75-0.48047-1.0586-0.80078l-29.18-29.102c-0.98438-0.98047-1.5391-2.3086-1.5391-3.6992s0.55469-2.7188 1.5391-3.6992l14.48-14.48 28.199 28.18c0.76953 0.72266 1.9688 0.72266 2.7383 0 0.72266-0.76953 0.72266-1.9688 0-2.7383l-28.219-28.184 4.5586-4.5391 36.48 36.5z"/>
</svg>
