<?xml version="1.0" encoding="utf-8"?>
<!-- Generator: Adobe Illustrator 27.2.0, SVG Export Plug-In . SVG Version: 6.00 Build 0)  -->
<svg version="1.1" id="Layer_1" xmlns="http://www.w3.org/2000/svg" xmlns:xlink="http://www.w3.org/1999/xlink" x="0px" y="0px"
	 viewBox="0 0 100 100" style="enable-background:new 0 0 100 100;" xml:space="preserve">
<style type="text/css">
	.st0{fill-rule:evenodd;clip-rule:evenodd;fill:#FFFFFF;}
</style>
<g>
	<path class="st0" d="M50,25c-13.8,0-25,11.2-25,25s11.2,25,25,25s25-11.2,25-25S63.8,25,50,25z"/>
	<path class="st0" d="M47.9,8.3v8.3c0,1.1,0.9,2.1,2.1,2.1s2.1-0.9,2.1-2.1V8.3c0-1.1-0.9-2.1-2.1-2.1S47.9,7.2,47.9,8.3z"/>
	<path class="st0" d="M8.3,52.1h8.3c1.1,0,2.1-0.9,2.1-2.1s-0.9-2.1-2.1-2.1H8.3c-1.1,0-2.1,0.9-2.1,2.1S7.2,52.1,8.3,52.1z"/>
	<path class="st0" d="M22,80.9l5.9-5.9c0.8-0.8,0.8-2.1,0-2.9s-2.1-0.8-2.9,0L19.1,78c-0.8,0.8-0.8,2.1,0,2.9
		C19.9,81.8,21.2,81.8,22,80.9z"/>
	<path class="st0" d="M80.9,78L75,72.1c-0.8-0.8-2.1-0.8-2.9,0s-0.8,2.1,0,2.9l5.9,5.9c0.8,0.8,2.1,0.8,2.9,0
		C81.8,80.1,81.8,78.8,80.9,78z"/>
	<path class="st0" d="M52.1,91.7v-8.3c0-1.1-0.9-2.1-2.1-2.1s-2.1,0.9-2.1,2.1v8.3c0,1.1,0.9,2.1,2.1,2.1S52.1,92.8,52.1,91.7z"/>
	<path class="st0" d="M83.3,52.1h8.3c1.1,0,2.1-0.9,2.1-2.1s-0.9-2.1-2.1-2.1h-8.3c-1.1,0-2.1,0.9-2.1,2.1S82.2,52.1,83.3,52.1z"/>
	<path class="st0" d="M75,27.9l5.9-5.9c0.8-0.8,0.8-2.1,0-2.9c-0.8-0.8-2.1-0.8-2.9,0L72.1,25c-0.8,0.8-0.8,2.1,0,2.9
		S74.2,28.7,75,27.9z"/>
	<path class="st0" d="M27.9,25L22,19.1c-0.8-0.8-2.1-0.8-2.9,0c-0.8,0.8-0.8,2.1,0,2.9l5.9,5.9c0.8,0.8,2.1,0.8,2.9,0
		S28.7,25.8,27.9,25z"/>
</g>
</svg>
