<?xml version="1.0" encoding="utf-8"?>
<!-- Generator: Adobe Illustrator 27.2.0, SVG Export Plug-In . SVG Version: 6.00 Build 0)  -->
<svg version="1.1" id="Layer_1" xmlns="http://www.w3.org/2000/svg" xmlns:xlink="http://www.w3.org/1999/xlink" x="0px" y="0px"
	 viewBox="0 0 87.5 87.5" style="enable-background:new 0 0 87.5 87.5;" xml:space="preserve">
<style type="text/css">
	.st0{fill-rule:evenodd;clip-rule:evenodd;fill:#FFFFFF;}
</style>
<g>
	<path class="st0" d="M43.8,18.8c-13.8,0-25,11.2-25,25s11.2,25,25,25s25-11.2,25-25S57.5,18.8,43.8,18.8z M43.8,22.9
		c11.5,0,20.8,9.3,20.8,20.8s-9.3,20.8-20.8,20.8s-20.8-9.3-20.8-20.8S32.2,22.9,43.8,22.9z"/>
	<path class="st0" d="M41.7,2.1v8.3c0,1.1,0.9,2.1,2.1,2.1s2.1-0.9,2.1-2.1V2.1c0-1.1-0.9-2.1-2.1-2.1S41.7,0.9,41.7,2.1z"/>
	<path class="st0" d="M2.1,45.8h8.3c1.1,0,2.1-0.9,2.1-2.1s-0.9-2.1-2.1-2.1H2.1c-1.1,0-2.1,0.9-2.1,2.1S0.9,45.8,2.1,45.8z"/>
	<path class="st0" d="M15.8,74.7l5.9-5.9c0.8-0.8,0.8-2.1,0-2.9s-2.1-0.8-2.9,0l-5.9,5.9c-0.8,0.8-0.8,2.1,0,2.9
		C13.6,75.5,14.9,75.5,15.8,74.7z"/>
	<path class="st0" d="M74.7,71.7l-5.9-5.9c-0.8-0.8-2.1-0.8-2.9,0s-0.8,2.1,0,2.9l5.9,5.9c0.8,0.8,2.1,0.8,2.9,0
		C75.5,73.9,75.5,72.6,74.7,71.7z"/>
	<path class="st0" d="M45.8,85.4v-8.3c0-1.1-0.9-2.1-2.1-2.1s-2.1,0.9-2.1,2.1v8.3c0,1.1,0.9,2.1,2.1,2.1S45.8,86.6,45.8,85.4z"/>
	<path class="st0" d="M77.1,45.8h8.3c1.1,0,2.1-0.9,2.1-2.1s-0.9-2.1-2.1-2.1h-8.3c-1.1,0-2.1,0.9-2.1,2.1S75.9,45.8,77.1,45.8z"/>
	<path class="st0" d="M68.8,21.7l5.9-5.9c0.8-0.8,0.8-2.1,0-2.9c-0.8-0.8-2.1-0.8-2.9,0l-5.9,5.9c-0.8,0.8-0.8,2.1,0,2.9
		S68,22.5,68.8,21.7z"/>
	<path class="st0" d="M21.7,18.7l-5.9-5.9c-0.8-0.8-2.1-0.8-2.9,0c-0.8,0.8-0.8,2.1,0,2.9l5.9,5.9c0.8,0.8,2.1,0.8,2.9,0
		S22.5,19.5,21.7,18.7z"/>
</g>
</svg>
