<?xml version="1.0" encoding="UTF-8"?>
<svg width="100pt" height="100pt" version="1.1" viewBox="0 0 100 100" xmlns="http://www.w3.org/2000/svg">
 <g fill-rule="evenodd">
  <path d="m50 25c-13.797 0-25 11.203-25 25s11.203 25 25 25 25-11.203 25-25-11.203-25-25-25zm0 4.168c11.5 0 20.832 9.332 20.832 20.832s-9.332 20.832-20.832 20.832-20.832-9.332-20.832-20.832 9.332-20.832 20.832-20.832z"/>
  <path d="m47.918 8.332v8.332c0 1.1484 0.93359 2.082 2.082 2.082s2.082-0.93359 2.082-2.082v-8.332c0-1.1484-0.93359-2.082-2.082-2.082s-2.082 0.93359-2.082 2.082z"/>
  <path d="m8.332 52.082h8.332c1.1484 0 2.082-0.93359 2.082-2.082s-0.93359-2.082-2.082-2.082h-8.332c-1.1484 0-2.082 0.93359-2.082 2.082s0.93359 2.082 2.082 2.082z"/>
  <path d="m22.008 80.938 5.8945-5.8945c0.8125-0.8125 0.8125-2.1328 0-2.9453s-2.1328-0.8125-2.9453 0l-5.8945 5.8945c-0.8125 0.8125-0.8125 2.1289 0 2.9453 0.81641 0.8125 2.1328 0.8125 2.9453 0z"/>
  <path d="m80.938 77.992-5.8945-5.8945c-0.8125-0.8125-2.1328-0.8125-2.9453 0s-0.8125 2.1328 0 2.9453l5.8945 5.8945c0.8125 0.8125 2.1289 0.8125 2.9453 0 0.8125-0.81641 0.8125-2.1328 0-2.9453z"/>
  <path d="m52.082 91.668v-8.332c0-1.1484-0.93359-2.082-2.082-2.082s-2.082 0.93359-2.082 2.082v8.332c0 1.1484 0.93359 2.082 2.082 2.082s2.082-0.93359 2.082-2.082z"/>
  <path d="m83.332 52.082h8.332c1.1484 0 2.082-0.93359 2.082-2.082s-0.93359-2.082-2.082-2.082h-8.332c-1.1484 0-2.082 0.93359-2.082 2.082s0.93359 2.082 2.082 2.082z"/>
  <path d="m75.043 27.902 5.8945-5.8945c0.8125-0.8125 0.8125-2.1289 0-2.9453-0.81641-0.8125-2.1328-0.8125-2.9453 0l-5.8945 5.8945c-0.8125 0.8125-0.8125 2.1328 0 2.9453s2.1328 0.8125 2.9453 0z"/>
  <path d="m27.902 24.957-5.8945-5.8945c-0.8125-0.8125-2.1289-0.8125-2.9453 0-0.8125 0.81641-0.8125 2.1328 0 2.9453l5.8945 5.8945c0.8125 0.8125 2.1328 0.8125 2.9453 0s0.8125-2.1328 0-2.9453z"/>
 </g>
</svg>
