<?xml version="1.0" encoding="utf-8"?>
<!-- Generator: Adobe Illustrator 27.2.0, SVG Export Plug-In . SVG Version: 6.00 Build 0)  -->
<svg version="1.1" id="Layer_1" xmlns="http://www.w3.org/2000/svg" xmlns:xlink="http://www.w3.org/1999/xlink" x="0px" y="0px"
	 viewBox="0 0 68.2 95" style="enable-background:new 0 0 68.2 95;" xml:space="preserve">
<style type="text/css">
	.st0{fill:#FFFFFF;}
</style>
<g>
	<path class="st0" d="M34.1,57.1L34.1,57.1c-4.8,0-8.7,3.9-8.7,8.7c0,3.9,2.6,7.2,6.2,8.3v4.5l0,0c0,0.7,0.3,1.3,0.7,1.8
		c0.5,0.5,1.1,0.7,1.8,0.7c1.4,0,2.5-1.1,2.5-2.5v-4.5c3.6-1.1,6.2-4.4,6.2-8.3C42.8,61,38.9,57.1,34.1,57.1z M34.1,69.5
		c-2.1,0-3.7-1.6-3.7-3.7s1.6-3.7,3.7-3.7s3.7,1.6,3.7,3.7C37.8,67.9,36.2,69.5,34.1,69.5z"/>
	<path class="st0" d="M59.2,43.2h-3.6V32.3c0-12.2-10-22.5-22.2-22.3c-11.8,0.2-21.2,9.8-21.2,21.6v13.3h5V31.6
		c0-9.2,7.4-16.6,16.7-16.6s16.7,7.4,16.7,16.6v11.6H19.5h-2.3h-5H9c-5,0-9,4.1-9,9V86c0,4.9,4,9,9,9h50.2c4.9,0,9-4,9-9V52.2
		C68.2,47.2,64.1,43.2,59.2,43.2z M63.1,86c0,2.2-1.7,4-4,4H9c-2.3,0-4-1.7-4-4V52.2c0-2.2,1.7-4,4-4h50.2c2.3,0,4,1.7,4,4V86H63.1z
		"/>
</g>
</svg>
