<?xml version="1.0" encoding="UTF-8"?>
<svg id="Layer_2" data-name="Layer 2" xmlns="http://www.w3.org/2000/svg" viewBox="0 0 72.07 93.33">
  <defs>
    <style>
      .cls-1 {
        fill: #fff;
      }
    </style>
  </defs>
  <g id="Layer_1-2" data-name="Layer 1">
    <g>
      <path class="cls-1" d="m70.39,6.03l-4.3-4.3c-2.3-2.3-6.1-2.3-8.5,0l-7.1,7.1-6.4-6.4c-1.6-1.6-4.1-1.6-5.7,0l-5.7,5.7c-.8.8-1.2,1.8-1.2,2.8s.4,2.1,1.2,2.8l4.2,4.2-24,24c-3.4,3.4-4.4,8.3-2.8,12.7l-.8.8c-1.9,1.9-1.9,5.1,0,7.1.9.9,2.2,1.5,3.5,1.5s2.6-.5,3.5-1.5l.8-.8c4.4,1.6,9.3.6,12.7-2.8l24-24,4.2,4.2c.8.8,1.8,1.2,2.8,1.2,1.1,0,2.1-.4,2.8-1.2l5.7-5.7c1.6-1.6,1.6-4.1,0-5.7l-6.4-6.4,7.1-7.1c2.7-2.11,2.7-5.9.39-8.2h0ZM27.19,56.23c-2.5,2.5-6.2,3.1-9.4,1.4-.8-.4-1.7-.3-2.3.4l-1.7,1.7c-.3.3-.6.3-.7.3-.2,0-.5,0-.7-.3-.4-.4-.4-1,0-1.4l1.7-1.8c.6-.6.8-1.6.3-2.3-1.6-3.1-1-6.9,1.4-9.4l24-24,11.3,11.3-23.9,24.1Zm39.6-25.5l-5.7,5.7-25.4-25.5,5.7-5.7,19.1,19.1,6.3,6.4Zm.7-19.1l-7,7.1-7.1-7.1,7.1-7.1c.8-.8,2-.8,2.8,0l4.2,4.2c.8.9.8,2.2,0,2.9h0Z"/>
      <path class="cls-1" d="m11.3,70.83c-.4-.4-.9-.6-1.4-.6s-1,.2-1.4.6l-5.6,5.6c-1.9,1.9-2.9,4.4-2.9,7s1,5.2,2.9,7c1.9,1.9,4.5,2.9,7,2.9s5.1-1,7-2.9c1.9-1.9,2.9-4.4,2.9-7.1s-1-5.2-2.9-7l-5.6-5.5Zm2.8,16.9c-1.1,1.1-2.6,1.7-4.2,1.7s-3.1-.6-4.2-1.7c-1.1-1.1-1.7-2.6-1.7-4.2s.6-3.1,1.7-4.2l4.2-4.2,4.2,4.2c1.1,1.1,1.7,2.6,1.7,4.2,0,1.5-.6,3-1.7,4.2Z"/>
    </g>
  </g>
</svg>