<?xml version="1.0" encoding="utf-8"?>
<!-- Generator: Adobe Illustrator 27.2.0, SVG Export Plug-In . SVG Version: 6.00 Build 0)  -->
<svg version="1.1" id="Layer_1" xmlns="http://www.w3.org/2000/svg" xmlns:xlink="http://www.w3.org/1999/xlink" x="0px" y="0px"
	 viewBox="0 0 36 28.5" style="enable-background:new 0 0 36 28.5;" xml:space="preserve">
<style type="text/css">
	.st0{fill:#FFFFFF;}
</style>
<path class="st0" d="M7.5,5.8C7.1,6.2,7.3,6.5,7.8,6.5H25c6.1,0,11,4.9,11,11c0,6.1-4.9,11-11,11h-9c-1.1,0-2-0.9-2-2
	c0-1.1,0.9-2,2-2h9c3.9,0,7-3.1,7-7c0-3.9-3.1-7-7-7H7.8c-0.6,0-0.7,0.3-0.3,0.7l2.4,2.4c0.8,0.8,0.8,2,0,2.8c-0.8,0.8-2,0.8-2.8,0
	L0.6,9.9c-0.8-0.8-0.8-2,0-2.8l6.5-6.5c0.8-0.8,2-0.8,2.8,0c0.8,0.8,0.8,2.1,0,2.8L7.5,5.8z"/>
</svg>
