<?xml version="1.0" encoding="utf-8"?>
<!-- Generator: Adobe Illustrator 27.2.0, SVG Export Plug-In . SVG Version: 6.00 Build 0)  -->
<svg version="1.1" id="Layer_1" xmlns="http://www.w3.org/2000/svg" xmlns:xlink="http://www.w3.org/1999/xlink" x="0px" y="0px"
	 viewBox="0 0 95 76" style="enable-background:new 0 0 95 76;" xml:space="preserve">
<style type="text/css">
	.st0{fill:#FFFFFF;}
</style>
<g>
	<path class="st0" d="M94.6,37L86.3,7.6c-0.8-2.7-2.5-4.9-4.9-6.3s-5.2-1.7-7.9-0.9L31,12.2c-2.7,0.8-4.9,2.5-6.3,4.9
		S23,22.3,23.8,25l8.3,29.4C33.4,59,37.6,62,42.2,62c0.9,0,1.9-0.1,2.8-0.4l6.5-1.7c2.9,2.2,5.8,4.3,7.4,5.5l2,7.2
		c0.7,2.4,3.2,3.8,5.6,3.2l15.6-4.4c2.4-0.7,3.8-3.2,3.2-5.6l-2.1-7.5c1.2-2.4,2-5,2.2-7.7l2.1-0.6c2.7-0.8,4.9-2.5,6.3-4.9
		C95,42.5,95.4,39.7,94.6,37L94.6,37z M61,62.7c-3.3-2.4-13-9.5-15.8-12.2c-1.1-1.1-0.9-2.7-0.1-3.7c0.5-0.7,1.4-1.3,2.6-0.5
		c1.6,1,5.3,3.7,7.2,5.1c0.9,0.7,2.2,0.2,2.4-0.9v-0.4l-6.8-24.3c-0.2-0.9,0.3-1.8,1.2-2c0.9-0.3,1.9,0.2,2.1,1.1l4.5,16
		c0.2,0.9,1.1,1.5,2,1.4c1-0.2,1.7-1.2,1.4-2.2l-5.3-18.8c-0.2-0.9,0.3-1.8,1.2-2c0.9-0.3,1.9,0.2,2.1,1.1L65,39.1
		c0.2,0.9,1.1,1.5,2,1.4c1-0.2,1.7-1.2,1.4-2.2l-4.5-16.1c-0.2-0.9,0.3-1.8,1.2-2c0.9-0.3,1.9,0.2,2.1,1.1l4.5,16.1
		c0.2,0.7,0.8,1.2,1.5,1.3c0.4,0,0.7,0,1.1-0.2c0.7-0.4,1-1.3,0.8-2.1L71.9,25c-0.2-0.8,0.4-1.7,1.3-1.9c0.9-0.3,1.9,0.2,2.1,1
		l5.9,21.1c1.2,4.4,0.4,8.8-1.8,12.5L61,62.7z M81.1,68l-15.6,4.3c-0.6,0.2-1.1-0.2-1.3-0.7l-1.6-5.7l17.6-5l1.6,5.8
		C82,67.2,81.6,67.8,81.1,68L81.1,68z M90.6,43.2c-0.9,1.6-2.4,2.8-4.2,3.3l-1.3,0.4c-0.1-0.9-0.3-1.8-0.5-2.7
		c-0.1-0.3-5.9-21.3-5.9-21.3c-0.8-2.7-3.6-4.2-6.4-3.4c-0.6,0.2-1.1,0.4-1.6,0.8v-0.1c-0.8-2.7-3.7-4.3-6.5-3.5
		c-0.7,0.2-1.4,0.6-1.9,1c-1.3-1.6-3.4-2.4-5.6-1.8c-2.1,0.6-3.6,2.4-3.8,4.4c-0.7-0.1-1.4-0.1-2.2,0.1c-2.8,0.8-4.4,3.6-3.7,6.4
		l5.1,18.3c-0.9-0.6-1.8-1.3-2.7-1.8c-2.5-1.5-5.3-1-7.1,1.4c-1.7,2.2-2.1,5.9,0.5,8.4c1.1,1,3,2.6,5.2,4.2l-4,1.1
		c-3.7,1-7.5-1.1-8.5-4.8l-8.3-29.4c-0.5-1.8-0.3-3.6,0.6-5.3c0.9-1.6,2.4-2.8,4.2-3.3L74.5,3.7c0.6-0.2,1.2-0.3,1.9-0.3
		c3,0,5.8,2,6.7,5l8.1,29.5C91.7,39.7,91.5,41.6,90.6,43.2L90.6,43.2z"/>
	<path class="st0" d="M17.9,29.8c-0.3-0.9-1.2-1.5-2.2-1.2L1.3,32.7c-1,0.2-1.5,1.2-1.2,2.1c0.2,0.8,0.9,1.3,1.7,1.3
		c0.2,0,0.3,0,0.5-0.1l14.5-4.1C17.6,31.7,18.2,30.7,17.9,29.8L17.9,29.8z"/>
	<path class="st0" d="M21.3,41.7c-0.3-0.9-1.2-1.5-2.2-1.2l-14.5,4c-0.9,0.3-1.5,1.2-1.2,2.2C3.6,47.5,4.3,48,5.1,48
		c0.2,0,0.3,0,0.5-0.1l14.4-4C21,43.6,21.5,42.6,21.3,41.7L21.3,41.7z"/>
	<path class="st0" d="M22.4,52.4L7.9,56.5c-0.9,0.3-1.5,1.2-1.2,2.2C6.9,59.5,7.6,60,8.4,60c0.2,0,0.3,0,0.5-0.1l14.5-4.1
		c0.9-0.3,1.5-1.2,1.2-2.2C24.3,52.6,23.4,52.1,22.4,52.4L22.4,52.4z"/>
</g>
</svg>
